PathFileType	4	(X/Y/Z)	Patient4_TMGait_0pt6_02_right_28.trc.trc
DataRate	CameraRate	NumFrames	NumMarkers	Units	OrigDataRate	OrigDataStartFrame	OrigNumFrames
80.459770114942	80.459770114942	6	33	mm	80.459770114942	1	       141
Frame#	Time	Sacral			L.Shoulder			Chest			R.Shoulder			Neck			R.ASIS			L.ASIS			R.Thigh.Superior			R.Thigh.Lateral			R.Thigh.Inferior			R.Patella			L.Thigh.Superior			L.Thigh.Lateral			L.Thigh.Inferior			L.Patella			L.Shank.Superior			L.Shank.Lateral			L.Shank.Inferior			R.Shank.Superior			R.Shank.Lateral			R.Shank.Inferior			R.Heel			R.Midfoot.Superior			R.Midfoot.Lateral			R.Toe			L.Heel			L.Midfoot.Lateral			L.Midfoot.Superior			L.Toe			L.Elbow			L.Wrist			R.Elbow			R.Wrist			
		X1	Y1	Z1	X2	Y2	Z2	X3	Y3	Z3	X4	Y4	Z4	X5	Y5	Z5	X6	Y6	Z6	X7	Y7	Z7	X8	Y8	Z8	X9	Y9	Z9	X10	Y10	Z10	X11	Y11	Z11	X12	Y12	Z12	X13	Y13	Z13	X14	Y14	Z14	X15	Y15	Z15	X16	Y16	Z16	X17	Y17	Z17	X18	Y18	Z18	X19	Y19	Z19	X20	Y20	Z20	X21	Y21	Z21	X22	Y22	Z22	X23	Y23	Z23	X24	Y24	Z24	X25	Y25	Z25	X26	Y26	Z26	X27	Y27	Z27	X28	Y28	Z28	X29	Y29	Z29	X30	Y30	Z30	X31	Y31	Z31	X32	Y32	Z32	X33	Y33	Z33	

1	33.640000000000	870.323250333723	1020.608727965659	415.773832884252	1085.280603507527	1429.798519680716	225.851349562316	1179.291764047173	1354.321430716014	388.915576079048	1101.164487293738	1441.855017443495	558.112572616008	1089.811051407591	1493.868197629321	374.948833222419	1091.377117973251	946.324784849454	534.541681129940	1083.159447538362	959.011601716839	260.719281348804	1170.762596695788	777.172338189407	506.736172298539	1128.835379918478	656.690032886898	580.104319857106	1220.815704569838	617.630661089721	502.645475313518	1237.342759972202	501.604926838051	523.997152959196	1123.240617968613	749.035053215514	288.594492611108	1027.273144092278	638.367135471889	235.081565733293	1108.941490482335	557.140205219439	297.854750870273	1105.915935573832	488.131287454621	308.821537596112	1077.680604054970	418.180962112984	301.774469440387	984.711334207445	305.006407514489	253.231260917734	1033.944857762848	193.998766853191	326.639079550896	1156.436905235312	430.102129226687	527.320696476046	1029.690915949359	397.885023659468	580.832380727907	1011.158772812924	290.734041605030	530.542952489496	808.105904543543	240.759614497951	491.112354685226	970.614384520807	171.985619782012	539.280426628478	860.088764281483	179.050011513335	567.759614124192	1027.739248897400	57.907000049143	571.832019945057	904.506006771935	39.418836682581	374.409187478405	976.968016314238	35.199393891312	292.540245364989	1060.422640569747	96.421601668442	317.159771046297	1188.796070616416	44.250811223202	287.930317475260	1008.916716061596	1090.683994847174	95.037349170078	1142.112818830352	865.705408277719	72.468933347023	1022.314325403528	1104.606945265519	685.579553250550	1082.371913962217	848.127607712502	677.827717792914	
2	33.652428571429	869.982464178427	1020.747738445671	414.748902877490	1087.354793235253	1429.959198545085	226.409566280222	1179.838757275501	1354.116168737427	390.122017861891	1100.562096423027	1441.559194707332	558.862667919986	1090.585200766862	1493.836847026600	375.662210866319	1090.491302097030	946.736134411172	534.903947964518	1083.587175036505	958.846784724374	261.102717967749	1172.224167318752	780.281244675986	507.041599407627	1132.795069405357	659.544868498251	580.762465911752	1224.859561690172	621.773090163631	502.827971714295	1244.077381712199	506.739373538707	524.562492389180	1121.175365682073	747.981339632447	289.697768361297	1024.515102678915	638.231507519189	235.039529606472	1104.684171923548	556.177261432346	298.295170637764	1100.738399594855	487.229614676730	309.214974661936	1072.269179132976	417.598865744279	301.991809300013	978.781844737498	305.054542347822	253.165396761860	1026.872467441208	193.737099833037	326.705577432712	1165.704128727281	433.179952143494	528.466969592147	1040.773730569270	396.422772341022	582.707883265012	1025.952849686727	288.661454708962	532.637168373080	825.080032250415	231.301869618109	494.461823369720	989.858827256056	168.516151743388	541.811983410640	879.493372647374	171.749673962096	571.008326665021	1051.035249477126	56.680446542787	574.237863135912	896.543162607186	39.556554282144	374.303542263304	969.087865384718	35.237834762920	292.489525408325	1052.619451291636	96.342495868199	317.149444746792	1180.978832716668	43.926409810560	287.913146383402	1011.843589475998	1091.635291343278	93.448019721713	1151.134233312966	870.826141574777	71.590256496915	1014.894334154834	1106.332981540046	685.763814782956	1062.270592313568	848.541186217512	683.934995824186	
3	33.664857142857	869.643015189685	1020.858585160121	413.763593666081	1089.404987662088	1430.077901652059	226.982330694643	1180.382938324168	1353.883485678747	391.336621527748	1099.965781993272	1441.251618301749	559.606691670240	1091.363251646486	1493.776756703608	376.380282482042	1089.610495444315	947.109632274358	535.287048098937	1084.010905036834	958.668296871434	261.504595513032	1173.620631394409	783.305847297695	507.367479479473	1136.634080835570	662.325176907070	581.434617600190	1228.774279549285	625.810720809420	503.042659138619	1250.629494481394	511.788941944970	525.168783112951	1119.160073179065	746.929419500503	290.781575769700	1021.792754215354	638.085867581269	235.004435618597	1100.483108150427	555.209460483540	298.729270069674	1095.631869977572	486.330344412104	309.603811514172	1066.928460262264	417.012473119402	302.207026384118	972.918585969100	305.097183710149	253.100768298899	1019.873576575209	193.470635836102	326.769504169055	1174.820087690614	436.175867592584	529.652744941791	1051.745398129427	394.840329956634	584.612252373989	1040.701431776450	286.476461235615	534.784832692256	842.072624135256	221.672728047598	497.848586187309	1009.102447071010	164.935721674841	544.399879437698	898.917526970786	164.321047328879	574.311883253788	1074.357449701187	55.398851309399	576.741668154819	888.663320072010	39.689101316519	374.197572450546	961.281990644698	35.271671360442	292.439207243970	1044.890786114918	96.264331277489	317.139424371071	1173.235630596364	43.607264954309	287.896188638059	1014.718756058384	1092.539514211118	91.912184508147	1160.046550041742	875.916156235490	70.799640464195	1007.575028782593	1108.080986124465	686.016420581072	1042.632341139032	849.107205045187	689.903343500474	
4	33.677285714286	869.315850001146	1020.916370900004	412.867199834254	1091.413555384158	1430.114153514289	227.596232027488	1180.930521812559	1353.594519530645	392.576239904003	1099.398432537894	1440.919575765951	560.351089854016	1092.160156447577	1493.657768079964	377.118505970140	1088.748884321193	947.403013543279	535.723284407093	1084.428969788259	958.462952566078	261.952314461477	1174.868160905781	786.125652352888	507.749536035102	1140.183390214820	664.920626726836	582.153640943910	1232.384074103467	629.589719175390	503.343949943573	1256.767657575573	516.641384375087	525.864907430057	1117.226078125803	745.875460704507	291.833554345136	1019.114275772453	637.923755314491	234.990112343810	1096.357833763083	554.231987028665	299.154330694966	1090.627095385224	485.438037110180	309.984838278050	1061.685852160413	416.421100164418	302.421008512352	967.144139767158	305.133847570636	253.042331844117	1012.979197226422	193.198880773354	326.830331170698	1183.614823204797	439.002641870614	530.927275417813	1062.544237485216	393.003185639924	586.605933078000	1055.434097711966	284.091311707360	537.053339790005	859.276196370535	211.692484849753	501.342561877755	1028.486388481701	161.194855865126	547.123711189930	918.558290875085	156.654561086962	577.740878358460	1097.877952373728	54.107193026205	579.421629360605	880.904964547526	39.815449733781	374.092531494832	953.581715855303	35.300232643518	292.389908824907	1037.268712613947	96.189006563329	317.129323098919	1165.595840656548	43.298115031405	287.879145821674	1017.509176535613	1093.345811551532	90.502108388168	1168.764975598077	880.955548873226	70.206146954809	1000.447321437161	1109.884429907722	686.407353155083	1023.900356045508	849.964436439077	695.607510293394	
5	33.689714285714	869.012576174315	1020.906201708101	412.101475402327	1093.367745378837	1430.036783231882	228.277919951773	1181.490555063643	1353.226487545158	393.857823579353	1098.886440727285	1440.552725905723	561.107181424194	1092.993818508433	1493.455776867005	377.894439860007	1087.920512930417	947.581830360503	536.243671951190	1084.841040944296	958.220497994025	262.471619100676	1175.891158140237	788.633699811419	508.219794750821	1143.288438152479	667.229023230563	582.950232385722	1235.530119011936	632.969107155097	503.783872448370	1262.290106804628	521.199018263733	526.693036602382	1115.388800957563	744.811840527128	292.844898818390	1016.474482407875	637.741428093592	235.012036649853	1092.308723205669	553.240477424144	299.569567638888	1085.728828513197	484.555449068129	310.358647967651	1056.543456518069	415.824807306666	302.636592382034	961.456095543851	305.166281154044	252.995820947897	1006.192473053994	192.922927032070	326.889044941200	1191.950338145987	441.589651846781	532.333252709130	1073.151270162359	390.796284430654	588.753859526481	1070.217440008771	281.444402164030	539.505975855315	876.930959231563	201.211252815472	505.021230047950	1048.198148577162	157.276696204200	550.061189892760	938.661774554505	148.667426118269	581.363906721919	1121.810265750142	52.877434180645	582.332804865746	873.275369917582	39.936360797664	373.988998282139	945.989436253323	35.324094052637	292.342112646372	1029.756065301858	96.118000151773	317.118345271694	1158.059542080816	43.002313560835	287.861415014569	1020.199751577445	1094.011337150869	89.282837413026	1177.238691199531	885.936603307278	69.906152448782	993.575414617312	1111.777365238946	686.995163040778	1006.411646965312	851.213353536491	700.957574588562	
6	33.702142857143	868.746303146835	1020.823568342787	411.499640441109	1095.258091182487	1429.827430208580	229.050981969438	1182.073667220722	1352.765393854481	395.195042642614	1098.459610000204	1440.144606783721	561.890446307049	1093.882041945974	1493.155343645686	378.725425329503	1087.140833772327	947.622037877027	536.874698612415	1085.247939182791	957.934970116818	263.083750330198	1176.627805266540	790.739541821619	508.804434147150	1145.816561682345	669.159783066224	583.850313680752	1238.078446938765	635.825148478430	504.407517776763	1267.031962545580	525.377601547788	527.683096315826	1113.647817011847	743.729868290881	293.810842746379	1013.858163179296	637.538716469398	235.086308053935	1088.321549236967	552.233601020711	299.975865731450	1080.921461666720	483.685062231898	310.728806280113	1051.484242822511	415.226002693473	302.857982387064	955.834629098972	305.198570639180	252.967619702183	999.497933863899	192.646131274862	326.948019939905	1199.717124477608	443.884402432629	533.900276036272	1083.573193127865	388.139627591429	591.115551390096	1085.121715941858	278.514019862526	542.190201031014	895.273293943814	190.145669833840	508.954434992463	1068.419304220612	153.210876857848	553.273769324091	959.466440133878	140.330200134917	585.232940369176	1146.346174722684	51.810650100048	585.493429867916	865.760865440909	40.054770910857	373.886994426184	938.489653556281	35.345124746945	292.296397648710	1022.337483585283	96.052453054281	317.105538481353	1150.608729711861	42.722013917077	287.842219486994	1022.790634589466	1094.504335548684	88.309327933752	1185.440770769085	890.854926187388	69.975510446698	987.003369219751	1113.787238130266	687.819132172441	990.393657564289	852.901926957442	705.899187971842	
